# 3ds Max Wavefront OBJ Exporter v0.97b - (c)2007 guruware
# File Created: 28.09.2017 17:43:50

mtllib tree.mtl

#
# object tree
#

v  0.1175 0.6954 0.0249
v  0.0249 0.6954 -0.1175
v  -0.0000 0.9262 0.0000
v  -0.1175 0.6954 -0.0249
v  -0.0249 0.6954 0.1175
v  0.1897 0.4793 -0.0000
v  -0.0000 0.4793 -0.1897
v  -0.0000 0.7274 -0.0626
v  0.0626 0.7274 0.0000
v  -0.1897 0.4793 0.0000
v  -0.0626 0.7274 0.0000
v  0.0000 0.4793 0.1897
v  0.0000 0.7274 0.0626
v  0.2468 0.2717 0.0412
v  0.0412 0.2717 -0.2468
v  0.0210 0.5127 -0.1255
v  0.1255 0.5127 0.0210
v  -0.2468 0.2717 -0.0412
v  -0.1255 0.5127 -0.0210
v  -0.0412 0.2717 0.2468
v  -0.0210 0.5127 0.1255
v  0.0236 0.2189 -0.0025
v  0.0388 0.1232 -0.0047
v  -0.0000 0.1232 -0.0435
v  -0.0051 0.2189 -0.0312
v  -0.0388 0.1232 -0.0047
v  -0.0338 0.2189 -0.0025
v  0.0000 0.1232 0.0341
v  -0.0051 0.2189 0.0262
v  0.0548 0.0085 0.0015
v  -0.0000 0.0085 -0.0658
v  -0.0000 0.3884 -0.0388
v  0.0388 0.3884 -0.0000
v  -0.0573 0.0085 -0.0043
v  -0.0388 0.3884 0.0000
v  -0.0026 0.0085 0.0630
v  0.0000 0.3884 0.0388
# 37 vertices

vn 0.7869 0.3453 -0.5115
vn -0.5115 0.3453 -0.7869
vn -0.7869 0.3453 0.5115
vn 0.5115 0.3453 0.7869
vn 0.6649 0.3405 -0.6649
vn -0.6649 0.3405 -0.6649
vn -0.6649 0.3405 0.6649
vn 0.6649 0.3405 0.6649
vn 0.7656 0.3394 -0.5465
vn -0.5465 0.3394 -0.7656
vn -0.7656 0.3394 0.5465
vn 0.5465 0.3394 0.7656
vn 0.7013 0.1280 -0.7013
vn -0.7061 0.0531 -0.7061
vn -0.7070 0.0209 0.7070
vn 0.7038 0.0964 0.7038
vn 0.7463 0.0980 -0.6583
vn 0.7061 -0.0532 -0.7061
vn -0.7165 0.1231 -0.6866
vn -0.7071 -0.0105 -0.7071
vn -0.7413 0.1515 0.6539
vn -0.7068 -0.0314 0.7068
vn 0.7143 0.1460 0.6844
vn 0.7052 -0.0740 0.7052
# 24 vertex normals

g tree
usemtl Material__26
s off
f 1//1 2//1 3//1 
f 2//2 4//2 3//2 
f 4//3 5//3 3//3 
f 5//4 1//4 3//4 
f 6//5 7//5 8//5 9//5 
f 7//6 10//6 11//6 8//6 
f 10//7 12//7 13//7 11//7 
f 12//8 6//8 9//8 13//8 
f 14//9 15//9 16//9 17//9 
f 15//10 18//10 19//10 16//10 
f 18//11 20//11 21//11 19//11 
f 20//12 14//12 17//12 21//12 
usemtl Material__54
f 22//13 23//13 24//13 25//13 
f 25//14 24//14 26//14 27//14 
f 27//15 26//15 28//15 29//15 
f 29//16 28//16 23//16 22//16 
f 23//17 30//17 31//17 24//17 
f 25//18 32//18 33//18 22//18 
f 24//19 31//19 34//19 26//19 
f 27//20 35//20 32//20 25//20 
f 26//21 34//21 36//21 28//21 
f 29//22 37//22 35//22 27//22 
f 28//23 36//23 30//23 23//23 
f 22//24 33//24 37//24 29//24 
# 20 polygons - 4 triangles

