# 3ds Max Wavefront OBJ Exporter v0.97b - (c)2007 guruware
# File Created: 11.10.2017 19:10:25

mtllib black_double.mtl

#
# object liftline
#

v  -8.3411 12.4588 4.2581
v  -8.4538 12.4818 4.1871
v  -8.6474 12.4266 4.5551
v  -8.5287 12.3963 4.6182
v  -8.1465 12.3703 3.8858
v  -8.2606 12.3767 3.8073
v  -7.9519 12.1820 3.4169
v  -8.0873 12.2080 3.3554
v  -7.7669 11.9980 2.9754
v  -7.8822 12.0045 2.8983
v  -7.5432 11.8703 2.5710
v  -7.6441 11.8903 2.4880
v  -7.2602 11.7864 2.1589
v  -7.3600 11.8130 2.0743
v  -6.9629 11.7206 1.7796
v  -7.0719 11.7177 1.6906
v  -6.6730 11.6377 1.3664
v  -6.7872 11.6440 1.2764
v  -6.3550 11.5669 0.9843
v  -6.4648 11.5818 0.8937
v  -6.0062 11.4739 0.6369
v  -6.1170 11.4746 0.5474
v  -5.6525 11.4309 0.2910
v  -5.7606 11.4261 0.1983
v  -5.3288 11.3187 -0.0877
v  -5.4423 11.3394 -0.1743
v  -5.0135 10.9822 -0.4610
v  -5.1215 11.0119 -0.5532
v  -4.6789 10.8265 -0.8441
v  -4.7718 10.8582 -0.9470
v  -4.3517 10.7068 -1.1609
v  -4.4543 10.7366 -1.2521
v  -3.9682 10.6224 -1.5389
v  -4.0868 10.6571 -1.6245
v  -3.7117 10.4324 -1.9036
v  -3.8412 10.5090 -1.9774
v  -3.5093 10.2891 -2.3559
v  -3.6450 10.3509 -2.4085
v  -3.3835 10.1984 -2.8135
v  -3.5198 10.2462 -2.8577
v  -3.1796 10.0778 -3.2881
v  -3.3176 10.1299 -3.3373
v  -2.9058 9.9288 -3.6773
v  -3.0274 9.9769 -3.7597
v  -2.5771 9.5579 -4.0523
v  -2.6852 9.6092 -4.1449
v  -2.2684 9.2598 -4.4182
v  -2.3889 9.3195 -4.4837
v  -1.9812 9.0375 -4.7737
v  -2.1081 9.0998 -4.8328
v  -1.7398 8.7608 -5.1380
v  -1.8622 8.7954 -5.2036
v  -1.4603 8.3929 -5.5244
v  -1.5865 8.4447 -5.5961
v  -1.2168 8.1045 -5.9018
v  -1.3413 8.1546 -5.9869
v  -0.9543 7.8051 -6.2360
v  -1.0782 7.8537 -6.3221
v  -0.7268 7.6043 -6.5986
v  -0.8544 7.6618 -6.6793
v  -0.5190 7.3512 -6.9854
v  -0.6406 7.3731 -7.0644
v  -0.2346 7.0153 -7.4111
v  -0.3523 7.0230 -7.4929
v  0.0498 6.5534 -7.8168
v  -0.0677 6.5470 -7.9057
v  0.3576 6.2609 -8.2087
v  0.2394 6.2608 -8.2965
v  0.6310 6.0013 -8.6218
v  0.5156 6.0012 -8.7130
v  0.9726 5.7882 -8.9763
v  0.8646 5.7537 -9.0772
v  1.3077 5.5214 -9.3336
v  1.2059 5.5093 -9.4407
v  1.6578 5.3297 -9.6957
v  1.5593 5.3296 -9.7883
v  1.9514 5.1541 -10.0831
v  1.8349 5.1539 -10.1375
v  2.1591 4.9504 -10.4687
v  2.0248 4.9643 -10.5011
v  2.3453 4.7612 -10.8472
v  2.2096 4.7811 -10.8771
v  2.5503 4.5695 -11.2200
v  2.4145 4.5754 -11.2496
v  2.7861 4.4037 -11.5557
v  2.6588 4.4096 -11.5974
v  3.0801 4.2306 -11.9056
v  2.9628 4.2304 -11.9617
v  3.3664 4.0688 -12.2563
v  3.2420 4.0687 -12.3028
v  3.5853 3.8949 -12.6292
v  3.4574 3.8948 -12.6717
v  3.8781 3.7159 -12.9609
v  3.7633 3.7141 -13.0190
v  4.2386 3.5208 -13.2594
v  4.1339 3.5206 -13.3283
v  4.5755 3.2960 -13.5844
v  4.4621 3.2958 -13.6440
v  4.8380 3.1158 -13.9487
v  4.7156 3.1157 -13.9989
v  5.1111 2.9510 -14.2958
v  4.9843 2.9509 -14.3545
v  5.3451 2.7868 -14.6482
v  5.2131 2.7867 -14.7144
v  5.6413 2.4603 -15.0382
v  5.5186 2.4602 -15.1150
v  -8.7490 12.4326 4.7380
v  -8.6320 12.4006 4.8177
# 108 vertices

vn 0.1591 0.9862 0.0465
vn 0.1862 0.9819 0.0343
vn 0.1326 0.9676 0.2149
vn 0.1201 0.9696 0.2132
vn 0.1976 0.9598 -0.1994
vn 0.2101 0.9551 -0.2089
vn 0.2908 0.9200 -0.2626
vn 0.2905 0.9203 -0.2621
vn 0.2194 0.9481 -0.2300
vn 0.2094 0.9517 -0.2244
vn 0.2650 0.9605 -0.0846
vn 0.2454 0.9658 -0.0834
vn 0.2554 0.9664 -0.0282
vn 0.2697 0.9627 -0.0223
vn 0.0779 0.9899 -0.1187
vn 0.0904 0.9894 -0.1137
vn 0.1277 0.9883 -0.0836
vn 0.1172 0.9892 -0.0876
vn 0.1818 0.9807 -0.0726
vn 0.1821 0.9809 -0.0686
vn 0.0882 0.9904 -0.1060
vn 0.1031 0.9891 -0.1049
vn 0.0755 0.9904 -0.1162
vn 0.0629 0.9908 -0.1195
vn 0.3492 0.9084 -0.2299
vn 0.3182 0.9218 -0.2216
vn 0.4131 0.8906 -0.1902
vn 0.4140 0.8857 -0.2100
vn 0.3544 0.9344 -0.0371
vn 0.3531 0.9348 -0.0375
vn 0.2776 0.9607 0.0026
vn 0.2845 0.9587 -0.0011
vn 0.3365 0.9405 -0.0464
vn 0.3060 0.9512 -0.0399
vn 0.5250 0.8485 -0.0667
vn 0.5189 0.8519 -0.0712
vn 0.4315 0.8980 -0.0862
vn 0.4498 0.8892 -0.0840
vn 0.3554 0.9311 -0.0818
vn 0.3626 0.9283 -0.0826
vn 0.3786 0.9226 -0.0739
vn 0.3736 0.9246 -0.0749
vn 0.4790 0.8558 -0.1951
vn 0.4570 0.8731 -0.1702
vn 0.5656 0.7929 -0.2266
vn 0.5668 0.7897 -0.2350
vn 0.5091 0.8435 -0.1715
vn 0.5191 0.8337 -0.1886
vn 0.5070 0.8262 -0.2457
vn 0.5076 0.8372 -0.2036
vn 0.4418 0.8133 -0.3785
vn 0.4426 0.8169 -0.3699
vn 0.5114 0.7980 -0.3190
vn 0.5073 0.7943 -0.3343
vn 0.5223 0.8008 -0.2932
vn 0.5200 0.8029 -0.2916
vn 0.4944 0.8375 -0.2327
vn 0.4975 0.8318 -0.2464
vn 0.5057 0.8285 -0.2408
vn 0.5118 0.8292 -0.2246
vn 0.3915 0.8388 -0.3782
vn 0.4110 0.8336 -0.3690
vn 0.3866 0.7824 -0.4883
vn 0.3923 0.7829 -0.4829
vn 0.3338 0.8021 -0.4952
vn 0.3317 0.8048 -0.4921
vn 0.2896 0.8747 -0.3886
vn 0.2859 0.8754 -0.3898
vn 0.2683 0.8922 -0.3634
vn 0.2798 0.8913 -0.3568
vn 0.1412 0.8891 -0.4354
vn 0.1439 0.8882 -0.4364
vn 0.2505 0.9083 -0.3350
vn 0.2295 0.9121 -0.3398
vn 0.2387 0.9333 -0.2682
vn 0.2433 0.9325 -0.2669
vn 0.1634 0.9221 -0.3508
vn 0.1688 0.9244 -0.3421
vn 0.1858 0.9119 -0.3659
vn 0.1827 0.9108 -0.3702
vn 0.2056 0.9061 -0.3696
vn 0.2103 0.9077 -0.3631
vn 0.1251 0.9193 -0.3731
vn 0.1321 0.9152 -0.3807
vn 0.1538 0.9287 -0.3374
vn 0.1506 0.9275 -0.3421
vn 0.1510 0.9336 -0.3248
vn 0.1538 0.9330 -0.3254
vn 0.1273 0.9291 -0.3472
vn 0.1296 0.9308 -0.3419
vn 0.1241 0.9224 -0.3657
vn 0.1215 0.9230 -0.3652
vn 0.1720 0.9175 -0.3586
vn 0.1632 0.9186 -0.3600
vn 0.2320 0.9029 -0.3619
vn 0.2272 0.9064 -0.3561
vn 0.1883 0.9105 -0.3681
vn 0.1985 0.9063 -0.3731
vn 0.1399 0.9299 -0.3401
vn 0.1428 0.9284 -0.3429
vn 0.1519 0.9327 -0.3271
vn 0.1492 0.9330 -0.3275
vn 0.2131 0.8836 -0.4168
vn 0.2013 0.8919 -0.4049
vn 0.2945 0.8309 -0.4720
vn 0.2874 0.8316 -0.4752
vn 0.2063 0.9749 0.0842
# 107 vertex normals

g liftline
usemtl Material__71
s 1
f 1//1 2//2 3//3 4//4 
f 5//5 6//6 2//2 1//1 
f 7//7 8//8 6//6 5//5 
f 9//9 10//10 8//8 7//7 
f 11//11 12//12 10//10 9//9 
f 13//13 14//14 12//12 11//11 
f 15//15 16//16 14//14 13//13 
f 17//17 18//18 16//16 15//15 
f 19//19 20//20 18//18 17//17 
f 21//21 22//22 20//20 19//19 
f 23//23 24//24 22//22 21//21 
f 25//25 26//26 24//24 23//23 
f 27//27 28//28 26//26 25//25 
f 29//29 30//30 28//28 27//27 
f 31//31 32//32 30//30 29//29 
f 33//33 34//34 32//32 31//31 
f 35//35 36//36 34//34 33//33 
f 37//37 38//38 36//36 35//35 
f 39//39 40//40 38//38 37//37 
f 41//41 42//42 40//40 39//39 
f 43//43 44//44 42//42 41//41 
f 45//45 46//46 44//44 43//43 
f 47//47 48//48 46//46 45//45 
f 49//49 50//50 48//48 47//47 
f 51//51 52//52 50//50 49//49 
f 53//53 54//54 52//52 51//51 
f 55//55 56//56 54//54 53//53 
f 57//57 58//58 56//56 55//55 
f 59//59 60//60 58//58 57//57 
f 61//61 62//62 60//60 59//59 
f 63//63 64//64 62//62 61//61 
f 65//65 66//66 64//64 63//63 
f 67//67 68//68 66//66 65//65 
f 69//69 70//70 68//68 67//67 
f 71//71 72//72 70//70 69//69 
f 73//73 74//74 72//72 71//71 
f 75//75 76//76 74//74 73//73 
f 77//77 78//78 76//76 75//75 
f 79//79 80//80 78//78 77//77 
f 81//81 82//82 80//80 79//79 
f 83//83 84//84 82//82 81//81 
f 85//85 86//86 84//84 83//83 
f 87//87 88//88 86//86 85//85 
f 89//89 90//90 88//88 87//87 
f 91//91 92//92 90//90 89//89 
f 93//93 94//94 92//92 91//91 
f 95//95 96//96 94//94 93//93 
f 97//97 98//98 96//96 95//95 
f 99//99 100//100 98//98 97//97 
f 101//101 102//102 100//100 99//99 
f 103//103 104//104 102//102 101//101 
f 105//105 106//106 104//104 103//103 
s off
f 4//107 3//107 107//107 108//107 
# 53 polygons

#
# object west_ridge
#

v  -20.6773 13.8529 -3.5286
v  -20.7843 13.8943 -3.4665
v  -20.4191 13.8852 -2.9714
v  -20.3012 13.8481 -3.0567
v  -20.9535 13.8545 -3.9304
v  -21.0534 13.8906 -3.8512
v  -21.1968 13.8521 -4.2822
v  -21.2886 13.8879 -4.1845
v  -21.4923 13.8451 -4.6971
v  -21.5923 13.8827 -4.6143
v  -21.7038 13.8000 -5.1065
v  -21.8319 13.8328 -5.0627
v  -21.8348 13.7464 -5.5231
v  -21.9580 13.7795 -5.5148
v  -21.9059 13.6907 -5.9071
v  -22.0305 13.7224 -5.9326
v  -21.9914 13.6111 -6.3653
v  -22.1162 13.6464 -6.3783
v  -21.9947 13.5129 -6.8883
v  -22.1162 13.5550 -6.8834
v  -21.9820 13.3900 -7.3722
v  -22.1076 13.4355 -7.3855
v  -21.9526 13.2821 -7.8148
v  -22.0956 13.3292 -7.8366
v  -21.9438 13.1387 -8.2350
v  -22.0871 13.1824 -8.2623
v  -21.9338 12.9553 -8.6518
v  -22.0768 12.9954 -8.6847
v  -21.8956 12.7149 -9.0648
v  -22.0386 12.7550 -9.0976
v  -21.9119 12.4553 -9.5084
v  -22.0587 12.5011 -9.5216
v  -21.9809 12.2252 -10.0000
v  -22.1280 12.2939 -9.9819
v  -22.1408 12.0804 -10.4583
v  -22.2869 12.1517 -10.4327
v  -22.1865 11.8806 -10.9180
v  -22.3361 11.9511 -10.9131
v  -22.1700 11.6368 -11.3819
v  -22.3206 11.7131 -11.3889
v  -22.1773 11.3815 -11.8532
v  -22.3276 11.4822 -11.8565
v  -22.2019 11.0980 -12.3263
v  -22.3528 11.1877 -12.3315
v  -22.0762 10.8058 -12.7147
v  -22.2159 10.8612 -12.7619
v  -21.7591 10.4521 -13.0616
v  -21.8623 10.4613 -13.1671
v  -21.3087 10.0939 -13.1829
v  -21.3514 10.0645 -13.3168
v  -20.7968 9.7506 -13.2249
v  -20.8203 9.6926 -13.3627
v  -20.3214 9.4274 -13.3128
v  -20.3737 9.3949 -13.4447
v  -19.8711 9.0687 -13.5227
v  -19.9381 9.0626 -13.6497
v  -19.4490 8.7338 -13.7565
v  -19.5164 8.7180 -13.8832
v  -19.0275 8.4728 -13.9428
v  -19.0806 8.4191 -14.0744
v  -18.5536 8.2462 -14.0779
v  -18.5954 8.2072 -14.2132
v  -18.0787 8.0196 -14.2303
v  -18.1397 7.9945 -14.3583
v  -17.5905 7.7834 -14.4251
v  -17.6781 7.7677 -14.5408
v  -17.1694 7.5476 -14.6412
v  -17.2565 7.5239 -14.7565
v  -16.7306 7.3082 -14.8767
v  -16.8211 7.2856 -14.9907
v  -16.3592 7.0549 -15.1978
v  -16.4579 7.0280 -15.3077
v  -15.9794 6.8017 -15.5476
v  -16.0727 6.7661 -15.6624
v  -15.6346 6.5329 -15.8495
v  -15.7334 6.4984 -15.9593
v  -15.2680 6.2453 -16.1284
v  -15.3678 6.2109 -16.2375
v  -14.8810 5.9622 -16.4840
v  -14.9774 5.9271 -16.5963
v  -14.5341 5.6543 -16.8498
v  -14.6496 5.6241 -16.9418
v  -14.1938 5.3471 -17.1785
v  -14.3043 5.3379 -17.2745
v  -13.8481 5.1012 -17.5173
v  -13.9449 5.0826 -17.6293
v  -13.4878 4.8282 -17.8652
v  -13.5956 4.8220 -17.9662
v  -13.1627 4.5080 -18.2430
v  -13.2732 4.5153 -18.3404
v  -12.7928 4.2441 -18.5376
v  -12.8732 4.2192 -18.6562
v  -12.3086 3.9970 -18.7140
v  -12.3464 3.9556 -18.8546
v  -11.7921 3.7516 -18.9261
v  -11.8367 3.7103 -19.0637
v  -11.3979 3.5974 -19.0280
v  -11.4598 3.5555 -19.1605
v  -11.0008 3.4306 -19.1407
v  -11.0451 3.3890 -19.2797
v  -10.3950 3.2692 -19.2404
v  -10.4729 3.2322 -19.3736
v  -9.9357 3.1373 -19.2840
v  -9.9602 3.0966 -19.4278
v  -9.4563 3.0135 -19.4843
v  -9.5148 2.9790 -19.6171
v  -9.0352 2.8816 -19.7746
v  -9.1081 2.8535 -19.9044
v  -8.6049 2.7602 -20.0001
v  -8.6602 2.7377 -20.1361
v  -8.1911 2.6385 -20.0942
v  -8.2239 2.6101 -20.2270
v  -7.6369 2.4977 -20.1187
v  -7.6811 2.4766 -20.2620
v  -7.1651 2.3768 -20.2016
v  -7.2264 2.3674 -20.3408
v  -6.7349 2.2668 -20.3787
v  -6.7958 2.2571 -20.5180
# 118 vertices

vn 0.2534 0.9489 -0.1883
vn 0.2525 0.9494 -0.1867
vn 0.2074 0.9689 -0.1352
vn 0.2138 0.9663 -0.1431
vn 0.2222 0.9624 -0.1564
vn 0.2257 0.9610 -0.1600
vn 0.2112 0.9646 -0.1579
vn 0.2116 0.9647 -0.1570
vn 0.2017 0.9607 -0.1908
vn 0.2045 0.9608 -0.1870
vn 0.1884 0.9644 -0.1856
vn 0.1854 0.9654 -0.1834
vn 0.2459 0.9509 -0.1879
vn 0.2383 0.9541 -0.1815
vn 0.2806 0.9391 -0.1986
vn 0.2780 0.9390 -0.2024
vn 0.2879 0.9375 -0.1955
vn 0.2851 0.9393 -0.1909
vn 0.3176 0.9273 -0.1980
vn 0.3120 0.9300 -0.1942
vn 0.3512 0.9117 -0.2131
vn 0.3498 0.9123 -0.2131
vn 0.3365 0.9076 -0.2511
vn 0.3392 0.9061 -0.2530
vn 0.3325 0.8813 -0.3358
vn 0.3342 0.8798 -0.3381
vn 0.3326 0.8484 -0.4119
vn 0.3333 0.8475 -0.4131
vn 0.3332 0.8161 -0.4721
vn 0.3370 0.8138 -0.4735
vn 0.3053 0.8333 -0.4609
vn 0.3057 0.8337 -0.4598
vn 0.3426 0.8435 -0.4138
vn 0.3397 0.8443 -0.4145
vn 0.3505 0.8507 -0.3918
vn 0.3475 0.8523 -0.3910
vn 0.3843 0.8306 -0.4029
vn 0.3761 0.8353 -0.4010
vn 0.4376 0.8013 -0.4080
vn 0.4233 0.8096 -0.4067
vn 0.5004 0.7395 -0.4503
vn 0.4978 0.7471 -0.4405
vn 0.4663 0.7620 -0.4494
vn 0.4697 0.7543 -0.4587
vn 0.4539 0.7904 -0.4113
vn 0.4556 0.7843 -0.4210
vn 0.4788 0.7851 -0.3929
vn 0.4721 0.7879 -0.3953
vn 0.5216 0.7809 -0.3437
vn 0.5207 0.7815 -0.3437
vn 0.4722 0.7818 -0.4071
vn 0.4694 0.7847 -0.4049
vn 0.4622 0.8039 -0.3742
vn 0.4549 0.8046 -0.3816
vn 0.4973 0.8117 -0.3063
vn 0.4960 0.8118 -0.3082
vn 0.4352 0.8294 -0.3504
vn 0.4468 0.8292 -0.3359
vn 0.2865 0.8459 -0.4498
vn 0.2859 0.8483 -0.4457
vn 0.3136 0.8832 -0.3486
vn 0.3050 0.8822 -0.3586
vn 0.3138 0.8914 -0.3270
vn 0.3139 0.8913 -0.3271
vn 0.3060 0.8827 -0.3568
vn 0.3078 0.8846 -0.3504
vn 0.2791 0.8768 -0.3915
vn 0.2830 0.8768 -0.3888
vn 0.2701 0.8783 -0.3946
vn 0.2743 0.8782 -0.3919
vn 0.2241 0.8796 -0.4197
vn 0.2293 0.8801 -0.4157
vn 0.2194 0.8661 -0.4493
vn 0.2292 0.8625 -0.4511
vn 0.2521 0.8348 -0.4894
vn 0.2553 0.8339 -0.4894
vn 0.2377 0.8436 -0.4815
vn 0.2343 0.8455 -0.4798
vn 0.2299 0.8518 -0.4708
vn 0.2396 0.8485 -0.4719
vn 0.2041 0.8344 -0.5119
vn 0.1990 0.8340 -0.5146
vn 0.2884 0.8636 -0.4137
vn 0.2790 0.8626 -0.4219
vn 0.2732 0.8835 -0.3806
vn 0.2720 0.8828 -0.3829
vn 0.3222 0.8628 -0.3895
vn 0.3164 0.8633 -0.3933
vn 0.3716 0.8533 -0.3657
vn 0.3729 0.8523 -0.3668
vn 0.3028 0.8720 -0.3845
vn 0.3057 0.8715 -0.3835
vn 0.3083 0.8865 -0.3450
vn 0.3027 0.8881 -0.3459
vn 0.2728 0.8916 -0.3613
vn 0.2768 0.8925 -0.3561
vn 0.2469 0.8870 -0.3901
vn 0.2349 0.9073 -0.3489
vn 0.2322 0.9070 -0.3512
vn 0.1977 0.9119 -0.3596
vn 0.1920 0.9120 -0.3625
vn 0.1868 0.9362 -0.2977
vn 0.1744 0.9373 -0.3018
vn 0.1085 0.9501 -0.2924
vn 0.1045 0.9506 -0.2923
vn 0.1147 0.9572 -0.2659
vn 0.1087 0.9564 -0.2711
vn 0.1892 0.9533 -0.2356
vn 0.1852 0.9531 -0.2395
vn 0.2184 0.9429 -0.2517
vn 0.2177 0.9423 -0.2543
vn 0.2143 0.9557 -0.2019
vn 0.2141 0.9539 -0.2104
vn 0.2017 0.9672 -0.1544
vn 0.2019 0.9664 -0.1591
vn 0.1871 0.9710 -0.1489
vn 0.1872 0.9710 -0.1488
# 117 vertex normals

g west_ridge
usemtl Material__71
s 1
f 109//108 110//109 111//110 112//111 
f 113//112 114//113 110//109 109//108 
f 115//114 116//115 114//113 113//112 
f 117//116 118//117 116//115 115//114 
f 119//118 120//119 118//117 117//116 
f 121//120 122//121 120//119 119//118 
f 123//122 124//123 122//121 121//120 
f 125//124 126//125 124//123 123//122 
f 127//126 128//127 126//125 125//124 
f 129//128 130//129 128//127 127//126 
f 131//130 132//131 130//129 129//128 
f 133//132 134//133 132//131 131//130 
f 135//134 136//135 134//133 133//132 
f 137//136 138//137 136//135 135//134 
f 139//138 140//139 138//137 137//136 
f 141//140 142//141 140//139 139//138 
f 143//142 144//143 142//141 141//140 
f 145//144 146//145 144//143 143//142 
f 147//146 148//147 146//145 145//144 
f 149//148 150//149 148//147 147//146 
f 151//150 152//151 150//149 149//148 
f 153//152 154//153 152//151 151//150 
f 155//154 156//155 154//153 153//152 
f 157//156 158//157 156//155 155//154 
f 159//158 160//159 158//157 157//156 
f 161//160 162//161 160//159 159//158 
f 163//162 164//163 162//161 161//160 
f 165//164 166//165 164//163 163//162 
f 167//166 168//167 166//165 165//164 
f 169//168 170//169 168//167 167//166 
f 171//170 172//171 170//169 169//168 
f 173//172 174//173 172//171 171//170 
f 175//174 176//175 174//173 173//172 
f 177//176 178//177 176//175 175//174 
f 179//178 180//179 178//177 177//176 
f 181//180 182//181 180//179 179//178 
f 183//182 184//183 182//181 181//180 
f 185//184 186//185 184//183 183//182 
f 187//186 188//187 186//185 185//184 
f 189//188 190//189 188//187 187//186 
f 191//190 192//191 190//189 189//188 
f 193//192 194//193 192//191 191//190 
f 195//194 196//195 194//193 193//192 
f 197//196 198//197 196//195 195//194 
f 199//198 200//199 198//197 197//196 
f 201//200 202//201 200//199 199//198 
f 203//202 204//203 202//201 201//200 
f 205//204 206//204 204//203 203//202 
f 207//205 208//206 206//204 205//204 
f 209//207 210//208 208//206 207//205 
f 211//209 212//210 210//208 209//207 
f 213//211 214//212 212//210 211//209 
f 215//213 216//214 214//212 213//211 
f 217//215 218//216 216//214 215//213 
f 219//217 220//218 218//216 217//215 
f 221//219 222//220 220//218 219//217 
f 223//221 224//222 222//220 221//219 
f 225//223 226//224 224//222 223//221 
# 58 polygons

#
# object ambush
#

v  -2.8688 10.1503 -1.2213
v  -3.0098 10.2151 -1.2649
v  -3.2649 10.3167 -0.7738
v  -3.1120 10.2422 -0.7597
v  -2.7059 10.0047 -1.7738
v  -2.8451 10.0631 -1.8242
v  -2.4970 9.8342 -2.2105
v  -2.6238 9.8980 -2.2823
v  -2.2215 9.6428 -2.6142
v  -2.3405 9.7032 -2.7010
v  -1.9011 9.3773 -2.9906
v  -2.0189 9.4394 -3.0790
v  -1.5785 9.1347 -3.3617
v  -1.6785 9.1795 -3.4534
v  -1.1956 8.8461 -3.6592
v  -1.2653 8.8463 -3.7606
v  -0.8005 8.5910 -3.9312
v  -0.8660 8.5912 -4.0361
v  -0.4100 8.1913 -4.2414
v  -0.4765 8.1915 -4.3497
v  0.0242 7.8561 -4.4790
v  -0.0441 7.8459 -4.5972
v  0.4478 7.5775 -4.7969
v  0.3688 7.5626 -4.9149
v  0.8591 7.1392 -5.2454
v  0.8323 7.0576 -5.4423
# 26 vertices

vn 0.4267 0.9032 -0.0470
vn 0.4277 0.9034 -0.0312
vn 0.4350 0.8996 0.0397
vn 0.4309 0.9016 0.0388
vn 0.4270 0.8968 -0.1157
vn 0.4222 0.8990 -0.1167
vn 0.4887 0.8679 -0.0887
vn 0.4816 0.8714 -0.0931
vn 0.5129 0.8515 -0.1088
vn 0.5073 0.8556 -0.1028
vn 0.5285 0.8406 -0.1189
vn 0.5314 0.8383 -0.1216
vn 0.5125 0.8431 -0.1628
vn 0.5168 0.8435 -0.1464
vn 0.4049 0.8719 -0.2753
vn 0.4121 0.8708 -0.2680
vn 0.4655 0.8365 -0.2890
vn 0.4697 0.8325 -0.2937
vn 0.5097 0.8004 -0.3157
vn 0.5106 0.8009 -0.3128
vn 0.4153 0.8523 -0.3181
vn 0.4163 0.8546 -0.3105
vn 0.3772 0.8529 -0.3609
vn 0.3924 0.8442 -0.3652
vn 0.4331 0.8103 -0.3947
vn 0.4334 0.8103 -0.3945
# 26 vertex normals

g ambush
usemtl Material__71
s 1
f 227//225 228//226 229//227 230//228 
f 231//229 232//230 228//226 227//225 
f 233//231 234//232 232//230 231//229 
f 235//233 236//234 234//232 233//231 
f 237//235 238//236 236//234 235//233 
f 239//237 240//238 238//236 237//235 
f 241//239 242//240 240//238 239//237 
f 243//241 244//242 242//240 241//239 
f 245//243 246//244 244//242 243//241 
f 247//245 248//246 246//244 245//243 
f 249//247 250//248 248//246 247//245 
f 251//249 252//250 250//248 249//247 
# 12 polygons

