# 3ds Max Wavefront OBJ Exporter v0.97b - (c)2007 guruware
# File Created: 04.10.2017 14:09:18

#
# object liftline
#

v  -8.2109 12.4322 4.3401
v  -8.5840 12.5084 4.1051
v  -8.7845 12.4616 4.4821
v  -8.3915 12.3613 4.6912
v  -8.0145 12.3628 3.9766
v  -8.3925 12.3842 3.7165
v  -7.8146 12.1519 3.4761
v  -8.2631 12.2381 3.2726
v  -7.6337 11.9906 3.0646
v  -8.0154 12.0120 2.8092
v  -7.3696 11.8472 2.6867
v  -7.7040 11.9134 2.4118
v  -7.1447 11.7557 2.2566
v  -7.4754 11.8437 1.9766
v  -6.8368 11.7238 1.8824
v  -7.1980 11.7144 1.5877
v  -6.5410 11.6304 1.4704
v  -6.9193 11.6514 1.1724
v  -6.2281 11.5496 1.0889
v  -6.5917 11.5990 0.7891
v  -5.8780 11.4730 0.7404
v  -6.2451 11.4755 0.4440
v  -5.5276 11.4364 0.3983
v  -5.8855 11.4206 0.0910
v  -5.1975 11.2947 0.0124
v  -5.5736 11.3634 -0.2745
v  -4.8885 10.9479 -0.3545
v  -5.2464 11.0462 -0.6597
v  -4.5714 10.8354 -0.7252
v  -4.8792 10.9403 -1.0659
v  -4.1638 10.6494 -1.0163
v  -4.5035 10.7481 -1.3184
v  -3.8079 10.5314 -1.3324
v  -4.2007 10.6461 -1.6159
v  -3.5115 10.3562 -1.7725
v  -3.9405 10.5746 -2.0170
v  -3.3524 10.2177 -2.2951
v  -3.8020 10.4223 -2.4694
v  -3.1436 10.1431 -2.7491
v  -3.5953 10.3014 -2.8954
v  -3.0200 10.0174 -3.2313
v  -3.4772 10.1903 -3.3941
v  -2.7926 9.8731 -3.5993
v  -3.1954 10.0326 -3.8722
v  -2.4521 9.4986 -3.9453
v  -2.8102 9.6685 -4.2519
v  -2.1290 9.1909 -4.3424
v  -2.5283 9.3884 -4.5594
v  -1.9045 8.9654 -4.7372
v  -2.3249 9.1719 -4.9331
v  -1.5982 8.7207 -5.0621
v  -2.0038 8.8355 -5.2794
v  -1.3144 8.3331 -5.4414
v  -1.7324 8.5046 -5.6791
v  -1.0729 8.0467 -5.8033
v  -1.4851 8.2125 -6.0854
v  -0.8111 7.7491 -6.1365
v  -1.2214 7.9097 -6.4215
v  -0.5793 7.5377 -6.5053
v  -1.0018 7.7284 -6.7725
v  -0.3785 7.3259 -6.8940
v  -0.7811 7.3984 -7.1557
v  -0.0985 7.0064 -7.3167
v  -0.4883 7.0318 -7.5873
v  0.1857 6.5609 -7.7141
v  -0.2036 6.5395 -8.0085
v  0.4943 6.2609 -8.1071
v  0.1027 6.2607 -8.3981
v  0.7645 6.0014 -8.5164
v  0.3821 6.0011 -8.8184
v  1.0975 5.8280 -8.8596
v  0.7397 5.7139 -9.1938
v  1.4254 5.5355 -9.2097
v  1.0881 5.4952 -9.5646
v  1.7717 5.3298 -9.5887
v  1.4454 5.3295 -9.8954
v  2.0860 5.1543 -10.0202
v  1.7003 5.1537 -10.2004
v  2.3142 4.9343 -10.4313
v  1.8696 4.9803 -10.5385
v  2.5021 4.7381 -10.8127
v  2.0527 4.8042 -10.9117
v  2.7074 4.5627 -11.1858
v  2.2574 4.5822 -11.2838
v  2.9332 4.3969 -11.5075
v  2.5116 4.4164 -11.6455
v  3.2158 4.2308 -11.8406
v  2.8271 4.2302 -12.0266
v  3.5103 4.0690 -12.2024
v  3.0981 4.0685 -12.3567
v  3.7332 3.8951 -12.5802
v  3.3095 3.8946 -12.7207
v  4.0107 3.7180 -12.8936
v  3.6307 3.7119 -13.0863
v  4.3597 3.5210 -13.1798
v  4.0128 3.5203 -13.4079
v  4.7066 3.2962 -13.5154
v  4.3310 3.2956 -13.7129
v  4.9795 3.1160 -13.8907
v  4.5742 3.1155 -14.0570
v  5.2577 2.9511 -14.2280
v  4.8377 2.9507 -14.4224
v  5.4976 2.7869 -14.5717
v  5.0605 2.7867 -14.7910
v  5.7832 2.4604 -14.9495
v  5.3767 2.4601 -15.2037
# 106 vertices

vn 0.1340 0.9895 0.0539
vn 0.2065 0.9783 0.0182
vn 0.1430 0.9700 0.1965
vn 0.0990 0.9723 0.2115
vn 0.1933 0.9644 -0.1803
vn 0.2207 0.9549 -0.1988
vn 0.2845 0.9194 -0.2715
vn 0.2845 0.9198 -0.2703
vn 0.2241 0.9529 -0.2043
vn 0.2067 0.9569 -0.2042
vn 0.2833 0.9541 -0.0971
vn 0.2261 0.9703 -0.0858
vn 0.2417 0.9684 -0.0612
vn 0.2945 0.9534 -0.0653
vn 0.0641 0.9941 -0.0879
vn 0.1125 0.9894 -0.0923
vn 0.1423 0.9860 -0.0867
vn 0.1022 0.9913 -0.0829
vn 0.1743 0.9807 -0.0890
vn 0.1823 0.9796 -0.0852
vn 0.0735 0.9925 -0.0973
vn 0.1206 0.9876 -0.1004
vn 0.0942 0.9905 -0.0997
vn 0.0498 0.9942 -0.0958
vn 0.3710 0.8970 -0.2404
vn 0.2884 0.9303 -0.2265
vn 0.4026 0.9006 -0.1640
vn 0.3811 0.9059 -0.1846
vn 0.3568 0.9328 -0.0501
vn 0.3512 0.9352 -0.0445
vn 0.3224 0.9450 -0.0545
vn 0.3444 0.9367 -0.0622
vn 0.3429 0.9392 -0.0189
vn 0.2870 0.9579 -0.0090
vn 0.4728 0.8778 -0.0767
vn 0.4454 0.8924 -0.0727
vn 0.4113 0.9095 -0.0612
vn 0.4545 0.8868 -0.0843
vn 0.3567 0.9316 -0.0693
vn 0.3734 0.9250 -0.0702
vn 0.3957 0.9118 -0.1098
vn 0.3780 0.9196 -0.1070
vn 0.4905 0.8503 -0.1906
vn 0.4487 0.8777 -0.1682
vn 0.5618 0.7940 -0.2321
vn 0.5564 0.7949 -0.2418
vn 0.5165 0.8319 -0.2032
vn 0.5321 0.8210 -0.2072
vn 0.4846 0.8382 -0.2503
vn 0.5181 0.8235 -0.2312
vn 0.4465 0.8266 -0.3425
vn 0.4506 0.8314 -0.3252
vn 0.5176 0.7911 -0.3259
vn 0.4940 0.8000 -0.3406
vn 0.5227 0.7994 -0.2962
vn 0.5172 0.8039 -0.2938
vn 0.4994 0.8351 -0.2305
vn 0.4957 0.8343 -0.2411
vn 0.4806 0.8390 -0.2550
vn 0.5140 0.8219 -0.2457
vn 0.3704 0.8574 -0.3574
vn 0.4401 0.8210 -0.3638
vn 0.3782 0.7880 -0.4858
vn 0.4018 0.7789 -0.4815
vn 0.3350 0.8053 -0.4892
vn 0.3334 0.8080 -0.4858
vn 0.2940 0.8721 -0.3911
vn 0.2807 0.8766 -0.3908
vn 0.2456 0.8922 -0.3791
vn 0.2916 0.8800 -0.3750
vn 0.1393 0.9032 -0.4059
vn 0.1462 0.9008 -0.4089
vn 0.2749 0.8968 -0.3467
vn 0.2038 0.9154 -0.3471
vn 0.2318 0.9310 -0.2818
vn 0.2485 0.9257 -0.2853
vn 0.1592 0.9274 -0.3385
vn 0.1862 0.9246 -0.3323
vn 0.1919 0.9107 -0.3657
vn 0.1802 0.9130 -0.3660
vn 0.1885 0.9065 -0.3778
vn 0.2059 0.9034 -0.3761
vn 0.1308 0.9242 -0.3589
vn 0.1492 0.9163 -0.3717
vn 0.1564 0.9264 -0.3425
vn 0.1429 0.9280 -0.3440
vn 0.1464 0.9333 -0.3279
vn 0.1549 0.9313 -0.3296
vn 0.1234 0.9307 -0.3443
vn 0.1355 0.9301 -0.3414
vn 0.1314 0.9236 -0.3601
vn 0.1225 0.9251 -0.3594
vn 0.1827 0.9159 -0.3573
vn 0.1531 0.9207 -0.3589
vn 0.2300 0.8992 -0.3722
vn 0.2230 0.9031 -0.3670
vn 0.1804 0.9128 -0.3664
vn 0.2067 0.9045 -0.3730
vn 0.1411 0.9316 -0.3349
vn 0.1479 0.9293 -0.3384
vn 0.1551 0.9317 -0.3286
vn 0.1459 0.9337 -0.3269
vn 0.2214 0.8825 -0.4150
vn 0.1969 0.8949 -0.4006
vn 0.3013 0.8222 -0.4829
vn 0.2748 0.8316 -0.4826
# 106 vertex normals

g liftline
usemtl Material__71
s 1
f 1//1 2//2 3//3 4//4 
f 5//5 6//6 2//2 1//1 
f 7//7 8//8 6//6 5//5 
f 9//9 10//10 8//8 7//7 
f 11//11 12//12 10//10 9//9 
f 13//13 14//14 12//12 11//11 
f 15//15 16//16 14//14 13//13 
f 17//17 18//18 16//16 15//15 
f 19//19 20//20 18//18 17//17 
f 21//21 22//22 20//20 19//19 
f 23//23 24//24 22//22 21//21 
f 25//25 26//26 24//24 23//23 
f 27//27 28//28 26//26 25//25 
f 29//29 30//30 28//28 27//27 
f 31//31 32//32 30//30 29//29 
f 33//33 34//34 32//32 31//31 
f 35//35 36//36 34//34 33//33 
f 37//37 38//38 36//36 35//35 
f 39//39 40//40 38//38 37//37 
f 41//41 42//42 40//40 39//39 
f 43//43 44//44 42//42 41//41 
f 45//45 46//46 44//44 43//43 
f 47//47 48//48 46//46 45//45 
f 49//49 50//50 48//48 47//47 
f 51//51 52//52 50//50 49//49 
f 53//53 54//54 52//52 51//51 
f 55//55 56//56 54//54 53//53 
f 57//57 58//58 56//56 55//55 
f 59//59 60//60 58//58 57//57 
f 61//61 62//62 60//60 59//59 
f 63//63 64//64 62//62 61//61 
f 65//65 66//66 64//64 63//63 
f 67//67 68//68 66//66 65//65 
f 69//69 70//70 68//68 67//67 
f 71//71 72//72 70//70 69//69 
f 73//73 74//74 72//72 71//71 
f 75//75 76//76 74//74 73//73 
f 77//77 78//78 76//76 75//75 
f 79//79 80//80 78//78 77//77 
f 81//81 82//82 80//80 79//79 
f 83//83 84//84 82//82 81//81 
f 85//85 86//86 84//84 83//83 
f 87//87 88//88 86//86 85//85 
f 89//89 90//90 88//88 87//87 
f 91//91 92//92 90//90 89//89 
f 93//93 94//94 92//92 91//91 
f 95//95 96//96 94//94 93//93 
f 97//97 98//98 96//96 95//95 
f 99//99 100//100 98//98 97//97 
f 101//101 102//102 100//100 99//99 
f 103//103 104//104 102//102 101//101 
f 105//105 106//106 104//104 103//103 
# 52 polygons

#
# object west_ridge
#

v  -20.5551 13.8056 -3.5994
v  -20.9065 13.9416 -3.3957
v  -20.6394 13.9433 -3.0122
v  -20.3359 13.8045 -3.2306
v  -20.8393 13.8133 -4.0208
v  -21.1676 13.9318 -3.7608
v  -21.0920 13.8111 -4.3937
v  -21.3934 13.9289 -4.0730
v  -21.3782 13.8022 -4.7916
v  -21.7065 13.9257 -4.5198
v  -21.5575 13.7627 -5.1565
v  -21.9782 13.8702 -5.0127
v  -21.6942 13.7087 -5.5325
v  -22.0987 13.8172 -5.5053
v  -21.7637 13.6544 -5.8779
v  -22.1726 13.7587 -5.9618
v  -21.8489 13.5708 -6.3505
v  -22.2587 13.6867 -6.3931
v  -21.8560 13.4648 -6.8938
v  -22.2550 13.6032 -6.8778
v  -21.8386 13.3379 -7.3571
v  -22.2510 13.4875 -7.4007
v  -21.7893 13.2283 -7.7899
v  -22.2589 13.3831 -7.8615
v  -21.7803 13.0887 -8.2039
v  -22.2507 13.2324 -8.2935
v  -21.7705 12.9095 -8.6143
v  -22.2401 13.0412 -8.7222
v  -21.7323 12.6691 -9.0272
v  -22.2019 12.8008 -9.1352
v  -21.7443 12.4029 -9.4934
v  -22.2263 12.5535 -9.5367
v  -21.8130 12.1468 -10.0207
v  -22.2959 12.3723 -9.9612
v  -21.9739 11.9991 -10.4875
v  -22.4538 12.2331 -10.4035
v  -22.0158 11.8002 -10.9236
v  -22.5068 12.0316 -10.9075
v  -21.9980 11.5496 -11.3738
v  -22.4925 11.8002 -11.3970
v  -22.0057 11.2665 -11.8495
v  -22.4992 11.5973 -11.8603
v  -22.0296 10.9956 -12.3204
v  -22.5250 11.2900 -12.3374
v  -21.9167 10.7426 -12.6607
v  -22.3754 10.9245 -12.8158
v  -21.6413 10.4417 -12.9412
v  -21.9801 10.4718 -13.2875
v  -21.2598 10.1274 -13.0300
v  -21.4003 10.0309 -13.4697
v  -20.7700 9.8169 -13.0676
v  -20.8471 9.6263 -13.5200
v  -20.2617 9.4646 -13.1622
v  -20.4334 9.3577 -13.5952
v  -19.7947 9.0756 -13.3778
v  -20.0146 9.0556 -13.7946
v  -19.3502 8.7517 -13.5795
v  -19.5717 8.7001 -13.9956
v  -18.9138 8.5340 -13.7375
v  -19.0880 8.3578 -14.1696
v  -18.4442 8.2907 -13.8271
v  -18.5813 8.1628 -14.2715
v  -17.9472 8.0483 -13.9879
v  -18.1476 7.9658 -14.4083
v  -17.4727 7.8013 -14.2471
v  -17.7604 7.7498 -14.6271
v  -17.0699 7.5747 -14.5095
v  -17.3560 7.4968 -14.8882
v  -16.6900 7.3340 -14.7997
v  -16.9873 7.2597 -15.1739
v  -16.3095 7.0857 -15.1255
v  -16.6333 6.9973 -15.4862
v  -15.9269 6.8425 -15.4204
v  -16.2333 6.7254 -15.7974
v  -15.5217 6.5723 -15.7241
v  -15.8463 6.4590 -16.0848
v  -15.1541 6.2845 -16.0037
v  -15.4817 6.1717 -16.3622
v  -14.7709 6.0022 -16.3558
v  -15.0875 5.8871 -16.7245
v  -14.4021 5.6888 -16.7448
v  -14.7815 5.5897 -17.0468
v  -14.0675 5.3576 -17.0690
v  -14.4306 5.3275 -17.3841
v  -13.7376 5.1225 -17.3893
v  -14.0553 5.0612 -17.7573
v  -13.3647 4.8352 -17.7499
v  -13.7186 4.8149 -18.0815
v  -13.0365 4.4996 -18.1318
v  -13.3995 4.5237 -18.4516
v  -12.7011 4.2726 -18.4022
v  -12.9650 4.1907 -18.7915
v  -12.2654 4.0442 -18.5534
v  -12.3896 3.9084 -19.0152
v  -11.7411 3.7987 -18.7690
v  -11.8877 3.6631 -19.2208
v  -11.3273 3.6453 -18.8766
v  -11.5305 3.5076 -19.3119
v  -10.9502 3.4782 -18.9820
v  -11.0956 3.3414 -19.4384
v  -10.3060 3.3113 -19.0882
v  -10.5619 3.1900 -19.5258
v  -9.9076 3.1837 -19.1198
v  -9.9882 3.0501 -19.5920
v  -9.3896 3.0530 -19.3327
v  -9.5815 2.9395 -19.7688
v  -8.9519 2.9137 -19.6265
v  -9.1913 2.8213 -20.0525
v  -8.5417 2.7858 -19.8449
v  -8.7234 2.7120 -20.2913
v  -8.1537 2.6710 -19.9426
v  -8.2614 2.5777 -20.3786
v  -7.5864 2.5218 -19.9551
v  -7.7316 2.4525 -20.4256
v  -7.0952 2.3876 -20.0428
v  -7.2963 2.3567 -20.4996
v  -6.6655 2.2778 -20.2197
v  -6.8652 2.2461 -20.6770
# 118 vertices

vn 0.2587 0.9515 -0.1664
vn 0.2630 0.9454 -0.1923
vn 0.2836 0.9375 -0.2018
vn 0.2792 0.9428 -0.1823
vn 0.2252 0.9627 -0.1499
vn 0.2293 0.9589 -0.1672
vn 0.2143 0.9637 -0.1590
vn 0.2141 0.9641 -0.1572
vn 0.1981 0.9614 -0.1911
vn 0.2014 0.9616 -0.1866
vn 0.1971 0.9622 -0.1881
vn 0.1898 0.9657 -0.1769
vn 0.2493 0.9467 -0.2040
vn 0.2316 0.9574 -0.1726
vn 0.2824 0.9364 -0.2082
vn 0.2740 0.9407 -0.1999
vn 0.2919 0.9361 -0.1963
vn 0.2844 0.9407 -0.1852
vn 0.3239 0.9242 -0.2025
vn 0.3077 0.9327 -0.1881
vn 0.3481 0.9116 -0.2187
vn 0.3443 0.9136 -0.2163
vn 0.3348 0.9090 -0.2482
vn 0.3420 0.9042 -0.2560
vn 0.3314 0.8825 -0.3337
vn 0.3357 0.8786 -0.3396
vn 0.3325 0.8490 -0.4107
vn 0.3343 0.8470 -0.4133
vn 0.3275 0.8188 -0.4716
vn 0.3374 0.8096 -0.4803
vn 0.3105 0.8341 -0.4559
vn 0.3122 0.8345 -0.4541
vn 0.3410 0.8421 -0.4179
vn 0.3345 0.8470 -0.4131
vn 0.3566 0.8473 -0.3936
vn 0.3497 0.8539 -0.3855
vn 0.3924 0.8232 -0.4103
vn 0.3721 0.8418 -0.3912
vn 0.4525 0.7873 -0.4188
vn 0.4174 0.8215 -0.3885
vn 0.4900 0.7386 -0.4631
vn 0.4804 0.7569 -0.4432
vn 0.4640 0.7665 -0.4440
vn 0.4765 0.7482 -0.4616
vn 0.4564 0.7916 -0.4062
vn 0.4587 0.7839 -0.4185
vn 0.4873 0.7850 -0.3825
vn 0.4663 0.7927 -0.3928
vn 0.5284 0.7710 -0.3555
vn 0.5249 0.7742 -0.3537
vn 0.4631 0.7886 -0.4045
vn 0.4667 0.7901 -0.3975
vn 0.4718 0.8024 -0.3655
vn 0.4409 0.8118 -0.3830
vn 0.5005 0.8057 -0.3168
vn 0.4938 0.8079 -0.3216
vn 0.4110 0.8340 -0.3682
vn 0.4652 0.8192 -0.3354
vn 0.2814 0.8567 -0.4323
vn 0.2970 0.8537 -0.4278
vn 0.3437 0.8712 -0.3507
vn 0.3031 0.8762 -0.3748
vn 0.3128 0.8907 -0.3300
vn 0.3131 0.8902 -0.3309
vn 0.2865 0.8909 -0.3524
vn 0.3067 0.8871 -0.3450
vn 0.2614 0.8870 -0.3808
vn 0.2768 0.8839 -0.3770
vn 0.2612 0.8800 -0.3966
vn 0.2787 0.8757 -0.3943
vn 0.2267 0.8756 -0.4266
vn 0.2507 0.8708 -0.4229
vn 0.2220 0.8632 -0.4534
vn 0.2370 0.8601 -0.4517
vn 0.2430 0.8408 -0.4837
vn 0.2503 0.8389 -0.4833
vn 0.2384 0.8439 -0.4805
vn 0.2336 0.8463 -0.4788
vn 0.2237 0.8504 -0.4763
vn 0.2482 0.8421 -0.4788
vn 0.2154 0.8412 -0.4960
vn 0.1952 0.8457 -0.4967
vn 0.3015 0.8531 -0.4258
vn 0.2604 0.8628 -0.4332
vn 0.2768 0.8828 -0.3795
vn 0.2682 0.8847 -0.3813
vn 0.3311 0.8607 -0.3868
vn 0.3078 0.8680 -0.3896
vn 0.3672 0.8498 -0.3782
vn 0.3696 0.8491 -0.3774
vn 0.2971 0.8788 -0.3734
vn 0.3080 0.8745 -0.3746
vn 0.3150 0.8829 -0.3483
vn 0.3032 0.8860 -0.3508
vn 0.2650 0.8920 -0.3663
vn 0.2883 0.8889 -0.3560
vn 0.2459 0.8911 -0.3813
vn 0.2463 0.8909 -0.3815
vn 0.2430 0.9030 -0.3542
vn 0.2310 0.9047 -0.3580
vn 0.2042 0.9163 -0.3445
vn 0.1861 0.9163 -0.3546
vn 0.2035 0.9318 -0.3007
vn 0.1725 0.9345 -0.3114
vn 0.1096 0.9509 -0.2894
vn 0.1009 0.9519 -0.2893
vn 0.1251 0.9572 -0.2609
vn 0.0969 0.9582 -0.2691
vn 0.1984 0.9501 -0.2406
vn 0.1796 0.9522 -0.2471
vn 0.2181 0.9448 -0.2446
vn 0.2117 0.9444 -0.2516
vn 0.2236 0.9547 -0.1963
vn 0.2044 0.9549 -0.2154
vn 0.2081 0.9654 -0.1572
vn 0.1975 0.9661 -0.1664
vn 0.1869 0.9710 -0.1488
vn 0.1874 0.9710 -0.1486
# 118 vertex normals

g west_ridge
usemtl Material__71
s 1
f 107//107 108//108 109//109 110//110 
f 111//111 112//112 108//108 107//107 
f 113//113 114//114 112//112 111//111 
f 115//115 116//116 114//114 113//113 
f 117//117 118//118 116//116 115//115 
f 119//119 120//120 118//118 117//117 
f 121//121 122//122 120//120 119//119 
f 123//123 124//124 122//122 121//121 
f 125//125 126//126 124//124 123//123 
f 127//127 128//128 126//126 125//125 
f 129//129 130//130 128//128 127//127 
f 131//131 132//132 130//130 129//129 
f 133//133 134//134 132//132 131//131 
f 135//135 136//136 134//134 133//133 
f 137//137 138//138 136//136 135//135 
f 139//139 140//140 138//138 137//137 
f 141//141 142//142 140//140 139//139 
f 143//143 144//144 142//142 141//141 
f 145//145 146//146 144//144 143//143 
f 147//147 148//148 146//146 145//145 
f 149//149 150//150 148//148 147//147 
f 151//151 152//152 150//150 149//149 
f 153//153 154//154 152//152 151//151 
f 155//155 156//156 154//154 153//153 
f 157//157 158//158 156//156 155//155 
f 159//159 160//160 158//158 157//157 
f 161//161 162//162 160//160 159//159 
f 163//163 164//164 162//162 161//161 
f 165//165 166//166 164//164 163//163 
f 167//167 168//168 166//166 165//165 
f 169//169 170//170 168//168 167//167 
f 171//171 172//172 170//170 169//169 
f 173//173 174//174 172//172 171//171 
f 175//175 176//176 174//174 173//173 
f 177//177 178//178 176//176 175//175 
f 179//179 180//180 178//178 177//177 
f 181//181 182//182 180//180 179//179 
f 183//183 184//184 182//182 181//181 
f 185//185 186//186 184//184 183//183 
f 187//187 188//188 186//186 185//185 
f 189//189 190//190 188//188 187//187 
f 191//191 192//192 190//190 189//189 
f 193//193 194//194 192//192 191//191 
f 195//195 196//196 194//194 193//193 
f 197//197 198//198 196//196 195//195 
f 199//199 200//200 198//198 197//197 
f 201//201 202//202 200//200 199//199 
f 203//203 204//204 202//202 201//201 
f 205//205 206//206 204//204 203//203 
f 207//207 208//208 206//206 205//205 
f 209//209 210//210 208//208 207//207 
f 211//211 212//212 210//210 209//209 
f 213//213 214//214 212//212 211//211 
f 215//215 216//216 214//214 213//213 
f 217//217 218//218 216//216 215//215 
f 219//219 220//220 218//218 217//217 
f 221//221 222//222 220//220 219//219 
f 223//223 224//224 222//222 221//221 
# 58 polygons

#
# object ambush
#

v  -2.7486 10.0488 -1.2763
v  -3.2213 10.2659 -1.4226
v  -3.4447 10.4106 -0.9404
v  -2.9322 10.1607 -0.8930
v  -2.5880 9.9361 -1.7408
v  -3.0543 10.1317 -1.9099
v  -2.3937 9.7591 -2.1525
v  -2.8185 9.9731 -2.3931
v  -2.0816 9.5718 -2.5122
v  -2.4805 9.7742 -2.8030
v  -1.8036 9.3043 -2.9219
v  -2.1982 9.5124 -3.2181
v  -1.5019 9.0821 -3.2893
v  -1.8368 9.2321 -3.5963
v  -1.1544 8.8459 -3.5753
v  -1.3882 8.8465 -3.9150
v  -0.7234 8.5908 -3.8078
v  -0.9431 8.5914 -4.1594
v  -0.3318 8.1911 -4.1142
v  -0.5547 8.1917 -4.4769
v  0.1044 7.8680 -4.3400
v  -0.1243 7.8339 -4.7362
v  0.5408 7.5950 -4.6583
v  0.2758 7.5450 -5.0536
v  0.7092 7.4016 -4.7922
v  0.6565 7.1375 -5.4374
# 26 vertices

vn 0.4276 0.9010 -0.0735
vn 0.4384 0.8956 -0.0760
vn 0.4421 0.8947 -0.0636
vn 0.4364 0.8978 -0.0599
vn 0.4366 0.8944 -0.0969
vn 0.4204 0.9028 -0.0909
vn 0.4867 0.8698 -0.0810
vn 0.4626 0.8829 -0.0811
vn 0.5155 0.8500 -0.1085
vn 0.5022 0.8596 -0.0947
vn 0.5310 0.8364 -0.1359
vn 0.5382 0.8310 -0.1408
vn 0.4944 0.8509 -0.1776
vn 0.5282 0.8352 -0.1530
vn 0.3826 0.8876 -0.2567
vn 0.4194 0.8739 -0.2459
vn 0.4650 0.8371 -0.2881
vn 0.4616 0.8378 -0.2917
vn 0.5065 0.8002 -0.3213
vn 0.5143 0.7973 -0.3158
vn 0.4049 0.8560 -0.3213
vn 0.4259 0.8503 -0.3091
vn 0.4079 0.8418 -0.3537
vn 0.4053 0.8383 -0.3645
vn 0.5727 0.7412 -0.3503
vn 0.4891 0.7819 -0.3866
# 26 vertex normals

g ambush
usemtl Material__71
s 1
f 225//225 226//226 227//227 228//228 
f 229//229 230//230 226//226 225//225 
f 231//231 232//232 230//230 229//229 
f 233//233 234//234 232//232 231//231 
f 235//235 236//236 234//234 233//233 
f 237//237 238//238 236//236 235//235 
f 239//239 240//240 238//238 237//237 
f 241//241 242//242 240//240 239//239 
f 243//243 244//244 242//242 241//241 
f 245//245 246//246 244//244 243//243 
f 247//247 248//248 246//246 245//245 
f 249//249 250//250 248//248 247//247 
# 12 polygons

