# 3ds Max Wavefront OBJ Exporter v0.97b - (c)2007 guruware
# File Created: 04.10.2017 16:14:26

#
# object Cylinder006
#

v  -7.7350 2.25 -21.6264
v  -7.8471 2.25 -21.8205
v  -7.9592 2.25 -21.6264
v  -5.8264 11.85 7.8485
v  -5.9385 11.85 7.6544
v  -6.0506 11.85 7.8485
v  14.2921 5.1 15.1815
v  14.1800 5.1 14.9874
v  14.0680 5.1 15.1815
v  20.6281 3.15 3.2386
v  20.5160 3.15 3.0444
v  20.4039 3.15 3.2386
# 12 vertices

vn 0.0000 1.0000 -0.0000
# 1 vertex normals

g Cylinder006
s 1
f 1//1 2//1 3//1 
f 4//1 5//1 6//1 
f 7//1 8//1 9//1 
f 10//1 11//1 12//1 
# 0 polygons - 4 triangles

