# 3ds Max Wavefront OBJ Exporter v0.97b - (c)2007 guruware
# File Created: 06.10.2017 13:52:51

#
# object cafe
#

v  -21.5129 14.0116 -2.0382
v  -21.6250 14.0116 -2.2324
v  -21.7371 14.0116 -2.0382
v  19.2823 3.4847 1.9443
v  19.1702 3.4847 1.7502
v  19.0581 3.4847 1.9443
v  19.2002 3.9827 0.5262
v  19.0881 3.9827 0.3321
v  18.9760 3.9827 0.5262
v  26.4031 2.8922 4.6100
v  26.2910 2.8922 4.4158
v  26.1789 2.8922 4.6100
# 12 vertices

vn 0.0000 1.0000 -0.0000
# 1 vertex normals

g cafe
s 1
f 1//1 2//1 3//1 
f 4//1 5//1 6//1 
f 7//1 8//1 9//1 
f 10//1 11//1 12//1 
# 0 polygons - 4 triangles

