# 3ds Max Wavefront OBJ Exporter v0.97b - (c)2007 guruware
# File Created: 05.10.2017 18:30:16

#
# object med
#

v  -21.9202 14.1193 -2.6415
v  -22.0323 14.1193 -2.8356
v  -22.1444 14.1193 -2.6415
v  19.5550 3.0342 4.4903
v  19.4429 3.0342 4.2961
v  19.3308 3.0342 4.4903
v  -4.6050 11.8528 6.3457
v  -4.7171 11.8528 6.1516
v  -4.8291 11.8528 6.3457
# 9 vertices

vn 0.0000 1.0000 -0.0000
# 1 vertex normals

g med
s 1
f 1//1 2//1 3//1 
f 4//1 5//1 6//1 
f 7//1 8//1 9//1 
# 0 polygons - 3 triangles

