# 3ds Max Wavefront OBJ Exporter v0.97b - (c)2007 guruware
# File Created: 29.09.2017 18:51:20

mtllib station.mtl

#
# object station
#

v  17.6023 5.2990 4.0096
v  18.3876 5.2990 4.0096
v  18.3876 5.4408 3.6240
v  17.6023 5.4408 3.6240
v  17.6023 4.8254 4.0096
v  18.3876 4.8254 4.0096
v  18.3876 5.2990 3.2385
v  18.3876 4.8254 3.6240
v  18.3876 4.8254 3.2385
v  17.6023 5.2990 3.2385
v  17.6023 4.8254 3.2385
v  17.6023 4.8254 3.6240
v  20.2430 4.0976 5.9890
v  20.8157 4.0976 5.4517
v  20.5519 4.2394 5.1705
v  19.9792 4.2394 5.7079
v  20.2430 3.6240 5.9890
v  20.8157 3.6240 5.4517
v  20.2881 4.0976 4.8894
v  20.5519 3.6240 5.1705
v  20.2881 3.6240 4.8894
v  19.7154 4.0976 5.4267
v  19.7154 3.6240 5.4267
v  19.9792 3.6240 5.7079
v  24.0201 3.7933 6.9889
v  24.5928 3.7933 6.4515
v  24.3290 3.9351 6.1704
v  23.7563 3.9351 6.7077
v  24.0201 3.3197 6.9889
v  24.5928 3.3197 6.4515
v  24.0652 3.7933 5.8893
v  24.3290 3.3197 6.1704
v  24.0652 3.3197 5.8893
v  23.4925 3.7933 6.4266
v  23.4925 3.3197 6.4266
v  23.7563 3.3197 6.7077
v  26.2534 3.8157 7.4705
v  26.1797 3.8157 6.6886
v  25.7959 3.9575 6.7248
v  25.8696 3.9575 7.5066
v  26.2534 3.3421 7.4705
v  26.1797 3.3421 6.6886
v  25.4121 3.8157 6.7610
v  25.7959 3.3421 6.7248
v  25.4121 3.3421 6.7610
v  25.4857 3.8157 7.5428
v  25.4857 3.3421 7.5428
v  25.8696 3.3421 7.5066
v  6.3737 3.9071 -15.4074
v  6.6539 3.8238 -16.1362
v  6.2937 3.9491 -16.2890
v  6.0135 4.0324 -15.5602
v  6.3737 3.4366 -15.3537
v  6.6539 3.3533 -16.0825
v  5.9336 3.7926 -16.4096
v  6.2937 3.3377 -16.2192
v  5.9336 3.3221 -16.3558
v  5.6534 3.8759 -15.6808
v  5.6534 3.4054 -15.6270
v  6.0135 3.4210 -15.4903
v  -5.8603 4.4235 -20.6567
v  -5.4977 4.4235 -21.3532
v  -5.8396 4.5653 -21.5312
v  -6.2023 4.5653 -20.8347
v  -5.8603 3.9500 -20.6567
v  -5.4977 3.9500 -21.3532
v  -6.1816 4.4235 -21.7093
v  -5.8396 3.9500 -21.5312
v  -6.1816 3.9500 -21.7093
v  -6.5442 4.4235 -21.0128
v  -6.5442 3.9500 -21.0128
v  -6.2023 3.9500 -20.8347
v  -20.4872 10.4492 -1.2196
v  -20.1246 10.4492 -1.9161
v  -20.4665 10.5910 -2.0942
v  -20.8292 10.5910 -1.3976
v  -20.4872 9.9756 -1.2196
v  -20.1246 9.9756 -1.9161
v  -20.8085 10.4492 -2.2722
v  -20.4665 9.9756 -2.0942
v  -20.8085 9.9756 -2.2722
v  -21.1711 10.4492 -1.5757
v  -21.1711 9.9756 -1.5757
v  -20.8292 9.9756 -1.3976
v  -4.3879 6.4326 6.6495
v  -3.6820 6.4326 6.3055
v  -3.8509 6.5744 5.9589
v  -4.5568 6.5744 6.3029
v  -4.3879 5.9590 6.6495
v  -3.6820 5.9590 6.3055
v  -4.0198 6.4326 5.6123
v  -3.8509 5.9590 5.9589
v  -4.0198 5.9590 5.6123
v  -4.7257 6.4326 5.9564
v  -4.7257 5.9590 5.9564
v  -4.5568 5.9590 6.3029
v  13.7599 4.0767 14.0124
v  14.4658 4.0767 13.6684
v  14.2969 4.2185 13.3218
v  13.5910 4.2185 13.6658
v  13.7599 3.6032 14.0124
v  14.4658 3.6032 13.6684
v  14.1280 4.0767 12.9752
v  14.2969 3.6032 13.3218
v  14.1280 3.6032 12.9752
v  13.4221 4.0767 13.3193
v  13.4221 3.6032 13.3193
v  13.5910 3.6032 13.6658
v  12.8724 3.9551 10.5388
v  13.5783 3.9551 10.1948
v  13.4094 4.0970 9.8482
v  12.7035 4.0970 10.1922
v  12.8724 3.4816 10.5388
v  13.5783 3.4816 10.1948
v  13.2405 3.9551 9.5017
v  13.4094 3.4816 9.8482
v  13.2405 3.4816 9.5017
v  12.5346 3.9551 9.8457
v  12.5346 3.4816 9.8457
v  12.7035 3.4816 10.1922
v  25.0641 4.1265 15.2846
v  25.1538 4.1265 14.5045
v  24.7708 4.2683 14.4605
v  24.6811 4.2683 15.2406
v  25.0641 3.6530 15.2846
v  25.1538 3.6530 14.5045
v  24.3877 4.1265 14.4165
v  24.7708 3.6530 14.4605
v  24.3877 3.6530 14.4165
v  24.2981 4.1265 15.1966
v  24.2981 3.6530 15.1966
v  24.6811 3.6530 15.2406
v  19.4145 4.0049 14.3380
v  19.5042 4.0049 13.5579
v  19.1212 4.1468 13.5139
v  19.0315 4.1468 14.2940
v  19.4145 3.5314 14.3380
v  19.5042 3.5314 13.5579
v  18.7381 4.0049 13.4699
v  19.1212 3.5314 13.5139
v  18.7381 3.5314 13.4699
v  18.6485 4.0049 14.2500
v  18.6485 3.5314 14.2500
v  19.0315 3.5314 14.2940
v  -9.6630 8.4112 6.3196
v  -9.1816 8.4112 5.6991
v  -9.4863 8.5530 5.4628
v  -9.9676 8.5530 6.0833
v  -9.6630 7.9376 6.3196
v  -9.1816 7.9376 5.6991
v  -9.7909 8.4112 5.2265
v  -9.4863 7.9376 5.4628
v  -9.7909 7.9376 5.2265
v  -10.2722 8.4112 5.8470
v  -10.2722 7.9376 5.8470
v  -9.9676 7.9376 6.0833
# 156 vertices

vn 0.0000 0.9099 0.4148
vn 0.0000 1.0000 -0.0000
vn 0.0000 1.0000 0.0000
vn 0.0000 0.0000 1.0000
vn 1.0000 0.0000 -0.0000
vn 0.0000 0.0000 -1.0000
vn -1.0000 0.0000 -0.0000
vn 0.0000 0.9099 -0.4148
vn 0.2838 0.9099 0.3025
vn -0.0000 1.0000 -0.0000
vn 0.6843 0.0000 0.7292
vn 0.7292 0.0000 -0.6843
vn -0.6843 0.0000 -0.7292
vn -0.7292 0.0000 0.6843
vn -0.2838 0.9099 -0.3025
vn 0.4129 0.9099 -0.0389
vn -0.0000 1.0000 0.0000
vn 0.9956 0.0000 -0.0938
vn -0.0938 0.0000 -0.9956
vn -0.9956 0.0000 0.0938
vn 0.0938 0.0000 0.9956
vn -0.4129 0.9099 0.0389
vn 0.3889 0.9211 0.0191
vn 0.0022 0.9902 -0.1393
vn 0.0033 0.9903 -0.1389
vn 0.9344 0.0327 0.3546
vn 0.3575 -0.0858 -0.9300
vn -0.9344 -0.0327 -0.3546
vn -0.3575 0.0858 0.9300
vn -0.3839 0.8823 -0.2725
vn 0.3679 0.9099 0.1915
vn 0.8870 0.0000 0.4618
vn 0.4618 0.0000 -0.8870
vn -0.8870 0.0000 -0.4618
vn -0.4618 0.0000 0.8870
vn -0.3679 0.9099 -0.1915
vn 0.1817 0.9099 0.3728
vn 0.4381 0.0000 0.8989
vn 0.8989 0.0000 -0.4381
vn -0.4381 0.0000 -0.8989
vn -0.8989 0.0000 0.4381
vn -0.1817 0.9099 -0.3728
vn 0.4120 0.9099 0.0473
vn 0.9935 0.0000 0.1141
vn 0.1141 0.0000 -0.9935
vn -0.9935 0.0000 -0.1141
vn -0.1141 0.0000 0.9935
vn -0.4120 0.9099 -0.0473
vn 0.3277 0.9099 0.2542
vn 0.7901 0.0000 0.6129
vn 0.6129 0.0000 -0.7901
vn -0.7901 0.0000 -0.6129
vn -0.6129 0.0000 0.7901
vn -0.3277 0.9099 -0.2542
# 54 vertex normals

g station
usemtl Material__56
s 4
f 1//1 2//1 3//2 4//3 
s off
f 2//4 1//4 5//4 6//4 
f 7//5 3//5 8//5 9//5 
f 10//6 7//6 9//6 11//6 
f 1//7 4//7 12//7 5//7 
s 4
f 3//2 7//8 10//8 4//3 
s off
f 3//5 2//5 6//5 8//5 
f 4//7 10//7 11//7 12//7 
s 4
f 13//9 14//9 15//10 16//3 
s off
f 14//11 13//11 17//11 18//11 
f 19//12 15//12 20//12 21//12 
f 22//13 19//13 21//13 23//13 
f 13//14 16//14 24//14 17//14 
s 4
f 15//10 19//15 22//15 16//3 
s off
f 15//12 14//12 18//12 20//12 
f 16//14 22//14 23//14 24//14 
s 4
f 25//9 26//9 27//3 28//10 
s off
f 26//11 25//11 29//11 30//11 
f 31//12 27//12 32//12 33//12 
f 34//13 31//13 33//13 35//13 
f 25//14 28//14 36//14 29//14 
s 4
f 27//3 31//15 34//15 28//10 
s off
f 27//12 26//12 30//12 32//12 
f 28//14 34//14 35//14 36//14 
s 4
f 37//16 38//16 39//17 40//17 
s off
f 38//18 37//18 41//18 42//18 
f 43//19 39//19 44//19 45//19 
f 46//20 43//20 45//20 47//20 
f 37//21 40//21 48//21 41//21 
s 4
f 39//17 43//22 46//22 40//17 
s off
f 39//19 38//19 42//19 44//19 
f 40//21 46//21 47//21 48//21 
s 4
f 49//23 50//23 51//24 52//25 
s off
f 50//26 49//26 53//26 54//26 
f 55//27 51//27 56//27 57//27 
f 58//28 55//28 57//28 59//28 
f 49//29 52//29 60//29 53//29 
s 4
f 51//24 55//30 58//30 52//25 
s off
f 51//27 50//27 54//27 56//27 
f 52//29 58//29 59//29 60//29 
s 4
f 61//31 62//31 63//10 64//17 
s off
f 62//32 61//32 65//32 66//32 
f 67//33 63//33 68//33 69//33 
f 70//34 67//34 69//34 71//34 
f 61//35 64//35 72//35 65//35 
s 4
f 63//10 67//36 70//36 64//17 
s off
f 63//33 62//33 66//33 68//33 
f 64//35 70//35 71//35 72//35 
s 4
f 73//31 74//31 75//10 76//2 
s off
f 74//32 73//32 77//32 78//32 
f 79//33 75//33 80//33 81//33 
f 82//34 79//34 81//34 83//34 
f 73//35 76//35 84//35 77//35 
s 4
f 75//10 79//36 82//36 76//2 
s off
f 75//33 74//33 78//33 80//33 
f 76//35 82//35 83//35 84//35 
s 4
f 85//37 86//37 87//10 88//3 
s off
f 86//38 85//38 89//38 90//38 
f 91//39 87//39 92//39 93//39 
f 94//40 91//40 93//40 95//40 
f 85//41 88//41 96//41 89//41 
s 4
f 87//10 91//42 94//42 88//3 
s off
f 87//39 86//39 90//39 92//39 
f 88//41 94//41 95//41 96//41 
s 4
f 97//37 98//37 99//3 100//10 
s off
f 98//38 97//38 101//38 102//38 
f 103//39 99//39 104//39 105//39 
f 106//40 103//40 105//40 107//40 
f 97//41 100//41 108//41 101//41 
s 4
f 99//3 103//42 106//42 100//10 
s off
f 99//39 98//39 102//39 104//39 
f 100//41 106//41 107//41 108//41 
s 4
f 109//37 110//37 111//3 112//10 
s off
f 110//38 109//38 113//38 114//38 
f 115//39 111//39 116//39 117//39 
f 118//40 115//40 117//40 119//40 
f 109//41 112//41 120//41 113//41 
s 4
f 111//3 115//42 118//42 112//10 
s off
f 111//39 110//39 114//39 116//39 
f 112//41 118//41 119//41 120//41 
s 4
f 121//43 122//43 123//3 124//10 
s off
f 122//44 121//44 125//44 126//44 
f 127//45 123//45 128//45 129//45 
f 130//46 127//46 129//46 131//46 
f 121//47 124//47 132//47 125//47 
s 4
f 123//3 127//48 130//48 124//10 
s off
f 123//45 122//45 126//45 128//45 
f 124//47 130//47 131//47 132//47 
s 4
f 133//43 134//43 135//2 136//10 
s off
f 134//44 133//44 137//44 138//44 
f 139//45 135//45 140//45 141//45 
f 142//46 139//46 141//46 143//46 
f 133//47 136//47 144//47 137//47 
s 4
f 135//2 139//48 142//48 136//10 
s off
f 135//45 134//45 138//45 140//45 
f 136//47 142//47 143//47 144//47 
s 4
f 145//49 146//49 147//10 148//17 
s off
f 146//50 145//50 149//50 150//50 
f 151//51 147//51 152//51 153//51 
f 154//52 151//52 153//52 155//52 
f 145//53 148//53 156//53 149//53 
s 4
f 147//10 151//54 154//54 148//17 
s off
f 147//51 146//51 150//51 152//51 
f 148//53 154//53 155//53 156//53 
# 104 polygons

