# 3ds Max Wavefront OBJ Exporter v0.97b - (c)2007 guruware
# File Created: 03.10.2017 17:47:53

#
# object z
#

v  0.1175 0.6025 0.0249
v  0.0249 0.6025 -0.1175
v  -0.0000 0.8333 0.0000
v  -0.1175 0.6025 -0.0249
v  -0.0249 0.6025 0.1175
v  0.1897 0.3864 -0.0000
v  -0.0000 0.3864 -0.1897
v  -0.0000 0.6344 -0.0626
v  0.0626 0.6344 0.0000
v  -0.1897 0.3864 0.0000
v  -0.0626 0.6344 0.0000
v  0.0000 0.3864 0.1897
v  0.0000 0.6344 0.0626
v  0.2468 0.1787 0.0412
v  0.0412 0.1787 -0.2468
v  0.0210 0.4197 -0.1255
v  0.1255 0.4197 0.0210
v  -0.2468 0.1787 -0.0412
v  -0.1255 0.4197 -0.0210
v  -0.0412 0.1787 0.2468
v  -0.0210 0.4197 0.1255
v  0.0548 0.0085 0.0015
v  -0.0000 0.0085 -0.0658
v  -0.0000 0.2955 -0.0388
v  0.0388 0.2955 -0.0000
v  -0.0573 0.0085 -0.0043
v  -0.0388 0.2955 0.0000
v  -0.0026 0.0085 0.0630
v  0.0000 0.2955 0.0388
# 29 vertices

vn 0.7869 0.3453 -0.5115
vn -0.5115 0.3453 -0.7869
vn -0.7869 0.3453 0.5115
vn 0.5115 0.3453 0.7869
vn 0.6649 0.3405 -0.6649
vn -0.6649 0.3405 -0.6649
vn -0.6649 0.3405 0.6649
vn 0.6649 0.3405 0.6649
vn 0.7656 0.3394 -0.5465
vn -0.5465 0.3394 -0.7656
vn -0.7656 0.3394 0.5465
vn 0.5465 0.3394 0.7656
vn 0.7490 0.0501 -0.6607
vn -0.7207 0.0608 -0.6906
vn -0.7490 0.0504 0.6607
vn 0.7212 0.0477 0.6911
# 16 vertex normals

g z
s off
f 1//1 2//1 3//1 
f 2//2 4//2 3//2 
f 4//3 5//3 3//3 
f 5//4 1//4 3//4 
f 6//5 7//5 8//5 9//5 
f 7//6 10//6 11//6 8//6 
f 10//7 12//7 13//7 11//7 
f 12//8 6//8 9//8 13//8 
f 14//9 15//9 16//9 17//9 
f 15//10 18//10 19//10 16//10 
f 18//11 20//11 21//11 19//11 
f 20//12 14//12 17//12 21//12 
f 22//13 23//13 24//13 25//13 
f 23//14 26//14 27//14 24//14 
f 26//15 28//15 29//15 27//15 
f 28//16 22//16 25//16 29//16 
# 12 polygons - 4 triangles

