# 3ds Max Wavefront OBJ Exporter v0.97b - (c)2007 guruware
# File Created: 05.10.2017 18:30:04

#
# object video
#

v  -17.5377 8.9673 -11.8514
v  -17.6498 8.9673 -12.0456
v  -17.7619 8.9673 -11.8514
v  -7.9204 12.0413 6.6214
v  -8.0325 12.0413 6.4272
v  -8.1446 12.0413 6.6214
v  -12.3409 12.0172 -1.0583
v  -12.4530 12.0172 -1.2524
v  -12.5651 12.0172 -1.0583
v  11.5235 5.8037 9.3254
v  11.4114 5.8037 9.1313
v  11.2993 5.8037 9.3254
v  23.0658 2.9452 4.5992
v  22.9537 2.9452 4.4051
v  22.8416 2.9452 4.5992
v  22.8443 3.6016 12.3606
v  22.7322 3.6016 12.1665
v  22.6201 3.6016 12.3606
# 18 vertices

vn 0.0000 1.0000 -0.0000
# 1 vertex normals

g video
s 1
f 1//1 2//1 3//1 
f 4//1 5//1 6//1 
f 7//1 8//1 9//1 
f 10//1 11//1 12//1 
f 13//1 14//1 15//1 
f 16//1 17//1 18//1 
# 0 polygons - 6 triangles

